<svg width="34" height="34" viewBox="0 0 34 34" fill="none" xmlns="http://www.w3.org/2000/svg">
<circle cx="17" cy="17" r="17" fill="#014EE1"/>
<path d="M10.912 24C10.912 23.056 11.016 22.216 11.224 21.48C11.448 20.744 11.832 20.08 12.376 19.488C12.92 18.896 13.688 18.32 14.68 17.76C15.56 17.296 16.296 16.904 16.888 16.584C17.48 16.264 17.928 15.96 18.232 15.672C18.552 15.368 18.712 15.016 18.712 14.616C18.712 14.136 18.52 13.728 18.136 13.392C17.752 13.04 17.208 12.864 16.504 12.864C15.736 12.864 15.072 13.048 14.512 13.416C13.968 13.784 13.496 14.208 13.096 14.688L11.056 12.336C11.344 12.032 11.776 11.704 12.352 11.352C12.928 11 13.616 10.696 14.416 10.44C15.216 10.184 16.096 10.056 17.056 10.056C18.688 10.056 19.952 10.44 20.848 11.208C21.76 11.96 22.216 12.936 22.216 14.136C22.216 14.888 22.04 15.528 21.688 16.056C21.352 16.568 20.928 17.008 20.416 17.376C19.92 17.728 19.44 18.04 18.976 18.312C17.952 18.824 17.144 19.272 16.552 19.656C15.976 20.04 15.512 20.52 15.16 21.096H22.48V24H10.912Z" fill="white"/>
</svg>
