<svg width="92" height="46" viewBox="0 0 92 46" fill="none" xmlns="http://www.w3.org/2000/svg">
<path d="M39.25 6.5C43.3333 5.83333 47.6667 5.5 52.1667 5.5C69.25 5.5 84 10.5833 91.0833 17.9167C87.0833 7.66667 69.5833 0 48.5 0C24.5 0 5 10.0833 5 22.4167C5 26 6.66667 29.4167 9.58333 32.4167C9 31 8.66667 29.4167 8.66667 27.9167C8.66667 20.3333 15.9167 13.6667 27 9.58333C22.6667 15.5 21.4167 23.5 24.5 30.75C26.8333 36.25 31.1667 40.1667 36.25 42.25C33.4167 40.0833 31.1667 37.1667 29.6667 33.75C25.3333 23.5 29.5833 11.75 39.25 6.5Z" fill="#F1F3F6"/>
<path d="M51.9167 39.499C47.8333 40.1657 43.5 40.499 38.9167 40.499C21.9167 40.499 7.16667 35.4157 0 28.0824C4.08333 38.3324 21.5833 45.999 42.6667 45.999C66.6667 45.999 86.1667 35.9157 86.1667 23.5824C86.1667 19.999 84.5 16.5824 81.5833 13.5824C82.1667 14.999 82.5 16.5824 82.5 18.0824C82.5 25.6657 75.25 32.3324 64.1667 36.4157C68.5 30.499 69.75 22.499 66.6667 15.249C64.3333 9.74902 60 5.83236 54.9167 3.74902C57.75 5.91569 60 8.83236 61.5 12.249C65.8333 22.499 61.5833 34.249 51.9167 39.499Z" fill="#F1F3F6"/>
<path d="M53.053 23.251C53.053 27.5146 49.5966 30.9709 45.333 30.9709C41.0694 30.9709 37.613 27.5146 37.613 23.251C37.613 18.9874 41.0694 15.531 45.333 15.531C49.5966 15.531 53.053 18.9874 53.053 23.251Z" stroke="white" stroke-width="1.06008"/>
</svg>
